<svg xmlns="http://www.w3.org/2000/svg" viewBox="0 0 1200 900" role="img" aria-labelledby="title desc"><title id="title">Healing femur fracture x-ray</title><desc id="desc">Diagnostic-style x-ray illustration of a femur shaft fracture with early callus formation.</desc><defs><radialGradient id="glow" cx="50%" cy="50%" r="58%"><stop offset="0" stop-color="#dce6ef"/><stop offset=".42" stop-color="#7f8f9d"/><stop offset="1" stop-color="#050505"/></radialGradient><linearGradient id="bone" x1="0" y1="0" x2="1" y2="1"><stop stop-color="#f6fbff"/><stop offset=".38" stop-color="#b8c3cc"/><stop offset=".72" stop-color="#eef6ff"/><stop offset="1" stop-color="#7d8893"/></linearGradient><linearGradient id="marrow" x1="0" y1="0" x2="1" y2="1"><stop stop-color="#7f8b94"/><stop offset=".5" stop-color="#c9d2db"/><stop offset="1" stop-color="#6f7a84"/></linearGradient><filter id="blur"><feGaussianBlur stdDeviation="9"/></filter><filter id="soft"><feDropShadow dx="0" dy="0" stdDeviation="10" flood-color="#dbeafe" flood-opacity=".75"/></filter><style>.label{font-family:Inter,Arial,sans-serif;font-weight:900;fill:#dbeafe;font-size:28px}.small{font-family:Inter,Arial,sans-serif;font-weight:800;fill:#9fb3c8;font-size:18px}</style></defs><rect width="1200" height="900" fill="#020202"/><rect x="58" y="58" width="1084" height="784" rx="34" fill="url(#glow)" opacity=".95"/><ellipse cx="606" cy="500" rx="244" ry="390" fill="#1b2733" opacity=".38" filter="url(#blur)"/><g transform="translate(10 -12) rotate(-3 600 460)" filter="url(#soft)"><path d="M555 118 C507 135 477 175 478 225 C479 270 506 302 555 322 L533 398 C511 475 506 562 513 646 L526 795 C545 821 675 821 695 795 L708 646 C716 555 705 468 681 396 L658 323 C710 302 738 268 737 222 C736 170 704 133 655 117 C628 107 582 108 555 118Z" fill="url(#bone)" opacity=".88"/><path d="M584 130 C547 148 526 182 526 224 C527 263 550 289 588 304 L570 401 C553 494 552 572 558 650 L568 778 C584 790 635 790 651 778 L662 650 C670 566 666 493 646 402 L626 305 C665 290 688 264 688 223 C688 181 667 148 630 131 C618 126 596 126 584 130Z" fill="url(#marrow)" opacity=".48"/><path d="M516 461 C548 437 587 430 626 436 C661 441 694 459 719 486 L724 530 C688 514 650 508 611 511 C573 514 536 526 503 550 L516 461Z" fill="#dce9f5" opacity=".28"/><path d="M500 543 C536 515 576 501 617 498 C660 496 699 506 735 528 L722 582 C688 559 652 548 613 549 C574 550 536 562 500 585 Z" fill="#f8fbff" opacity=".44"/><path d="M501 551 C548 535 604 535 654 552 C687 563 716 580 743 604" fill="none" stroke="#050505" stroke-width="16" stroke-linecap="round" opacity=".72"/><path d="M494 446 C535 418 585 407 634 417 C676 425 713 450 742 486" fill="none" stroke="#eaf3fc" stroke-width="34" stroke-linecap="round" opacity=".55"/><path d="M491 580 C541 603 590 609 642 599 C685 591 722 572 755 544" fill="none" stroke="#eaf3fc" stroke-width="32" stroke-linecap="round" opacity=".44"/><path d="M478 530 C512 507 555 492 606 488 C660 484 707 496 748 525" fill="none" stroke="#fff" stroke-width="7" opacity=".54"/><path d="M487 444 C523 420 569 410 618 417 C665 424 705 448 735 484" fill="none" stroke="#ffffff" stroke-width="8" opacity=".35"/><path d="M503 592 C541 609 590 615 635 606 C682 597 724 574 755 543" fill="none" stroke="#ffffff" stroke-width="8" opacity=".35"/></g><g opacity=".62"><path d="M144 128 H1036" stroke="#8295a6" stroke-width="2"/><path d="M144 770 H1036" stroke="#8295a6" stroke-width="2"/><path d="M156 130 V770" stroke="#8295a6" stroke-width="2"/><path d="M1034 130 V770" stroke="#8295a6" stroke-width="2"/></g><text x="88" y="110" class="label">Healing femur fracture</text><text x="88" y="812" class="small">Educational x-ray style image: mid-shaft fracture with early callus formation</text></svg>