<svg xmlns="http://www.w3.org/2000/svg" viewBox="0 0 1200 675" role="img"><rect width="1200" height="675" fill="#f8fbff"/><defs><linearGradient id="f" x1="0" x2="1"><stop offset="0" stop-color="#7edcff"/><stop offset="1" stop-color="#168ec4"/></linearGradient><linearGradient id="b" x1="0" x2="1"><stop offset="0" stop-color="#fff0dc"/><stop offset="1" stop-color="#d8b58a"/></linearGradient><style>.t{font-family:Arial,sans-serif;font-size:34px;font-weight:700;fill:#071d49}.l{stroke:#071d49;stroke-width:4;fill:none;stroke-linecap:round}.c{fill:#dff6ff;stroke:#75b9d0;stroke-width:5}.bone{fill:url(#b);stroke:#b8956d;stroke-width:4}.fluid{fill:url(#f);opacity:.95}.tendon{fill:#f1a1a1;stroke:#d77b7b;stroke-width:4}</style></defs><g><path class="bone" d="M520 80c75 0 125 47 125 115 0 70-56 112-126 112s-123-44-123-112C396 127 446 80 520 80z"/><path class="bone" d="M520 390c78 0 132 48 132 118s-55 120-132 120-132-50-132-120 54-118 132-118z"/><path class="fluid" d="M398 285c70 54 180 55 253 0 37 54 35 102-1 153-76-50-181-50-253 0-36-51-38-99 1-153z"/><path class="c" d="M417 255c64 42 159 42 218 0 21 16 33 29 43 48-80 50-205 50-284 0 8-19 12-32 23-48z"/><path class="c" d="M397 438c72-50 177-50 253 0-14 23-32 40-56 52-50-22-103-22-151 0-23-12-38-29-46-52z"/><circle cx="544" cy="348" r="42" fill="#e5f9ff" stroke="#fff" stroke-width="10"/><path class="tendon" d="M760 70c55 115 55 430-20 560l55 5c75-142 82-443 18-570z"/><circle class="bone" cx="715" cy="342" r="48"/><path d="M810 175c62 80 62 275 0 355" stroke="#2daae1" stroke-width="10" fill="none" stroke-linecap="round"/><path d="M805 168l38 7-25 29zM810 537l38-7-30-28z" fill="#2daae1"/></g><text class="t" x="140" y="245">joint fluid</text><path class="l" d="M330 235h160l35 70"/><text class="t" x="140" y="350">gas bubble</text><path class="l" d="M330 340h170"/><text class="t" x="160" y="455">cartilage</text><path class="l" d="M330 445h150l35-32"/><text class="t" x="875" y="305">tendon</text><text class="t" x="875" y="350">movement</text><path class="l" d="M850 315h-70"/></svg>
