<svg xmlns="http://www.w3.org/2000/svg" viewBox="0 0 1600 1000" role="img" aria-labelledby="title desc"><title id="title">Knuckle cracking education image</title><desc id="desc">Clean orthopedic illustration of a finger knuckle joint with cartilage, joint fluid, and a gas bubble.</desc><defs><linearGradient id="bg" x1="0" y1="0" x2="1" y2="1"><stop stop-color="#fff"/><stop offset="1" stop-color="#f0f8ff"/></linearGradient><linearGradient id="skin" x1="0" y1="0" x2="1" y2="1"><stop stop-color="#ffe4cb"/><stop offset="1" stop-color="#d7a172"/></linearGradient><linearGradient id="bone" x1="0" y1="0" x2="1" y2="1"><stop stop-color="#fff6e4"/><stop offset="1" stop-color="#d5ac72"/></linearGradient><linearGradient id="cart" x1="0" y1="0" x2="1" y2="1"><stop stop-color="#a8fff3"/><stop offset="1" stop-color="#14b8a6"/></linearGradient><filter id="s"><feDropShadow dx="0" dy="18" stdDeviation="20" flood-color="#0b1f3a" flood-opacity=".14"/></filter><style>.t{font-family:Inter,Arial,sans-serif;font-weight:900;fill:#0b1f3a}.l{font-family:Inter,Arial,sans-serif;font-weight:800;fill:#475569}.call{fill:#fff;stroke:#d7e7f5;stroke-width:4}</style></defs><rect width="1600" height="1000" fill="url(#bg)"/><circle cx="1310" cy="170" r="245" fill="#dff7fb" opacity=".46"/><circle cx="220" cy="850" r="230" fill="#dbeafe" opacity=".55"/><text x="90" y="120" class="t" font-size="58">Is cracking your knuckles bad?</text><text x="94" y="172" class="l" font-size="30">Painless knuckle cracking is usually related to pressure changes in joint fluid.</text><g filter="url(#s)"><path d="M190 560 C310 500 428 468 555 468 H1040 C1195 468 1324 510 1420 590 C1382 684 1282 735 1136 735 H534 C382 735 260 682 190 560Z" fill="url(#skin)" opacity=".92"/><path d="M388 598 C500 556 612 540 760 540 H941 C1062 540 1155 570 1225 624 C1155 669 1061 688 936 688 H737 C588 688 475 664 388 598Z" fill="#f5c49a" opacity=".72"/><path d="M365 620 C455 570 545 560 652 585 C714 600 765 630 800 665 C718 698 604 702 496 672 C430 653 388 638 365 620Z" fill="url(#bone)"/><path d="M890 665 C930 620 990 593 1062 585 C1165 574 1260 596 1344 646 C1308 678 1249 699 1162 703 C1054 708 956 696 890 665Z" fill="url(#bone)"/><path d="M650 586 C705 598 756 628 800 665 C827 636 855 612 894 594 C893 647 883 683 862 708 C822 718 780 717 741 707 C711 685 678 645 650 586Z" fill="url(#cart)"/><ellipse cx="820" cy="626" rx="118" ry="74" fill="#cfeefb" opacity=".74"/><circle cx="816" cy="617" r="42" fill="#fff" stroke="#1e5bd8" stroke-width="7"/><circle cx="855" cy="660" r="17" fill="#fff" stroke="#1e5bd8" stroke-width="5"/><path d="M642 533 C696 500 760 486 826 489 C900 492 956 513 1000 548" fill="none" stroke="#fff" stroke-width="12" stroke-linecap="round" opacity=".65"/></g><g><rect class="call" x="240" y="790" width="280" height="88" rx="26"/><text x="278" y="845" class="t" font-size="30">Knuckle joint</text><rect class="call" x="568" y="790" width="250" height="88" rx="26"/><text x="606" y="845" class="t" font-size="30">Cartilage</text><rect class="call" x="866" y="790" width="270" height="88" rx="26"/><text x="904" y="845" class="t" font-size="30">Joint fluid</text><rect class="call" x="1186" y="790" width="250" height="88" rx="26"/><text x="1224" y="845" class="t" font-size="30">Gas bubble</text></g></svg>