<svg xmlns="http://www.w3.org/2000/svg" viewBox="0 0 1400 420" role="img" aria-labelledby="title desc">
<title id="title">The Bone Blog horizontal logo</title><desc id="desc">The Bone Blog logo with B bone bookmark mark and text.</desc>
<rect width="1400" height="420" fill="white"/>
<g transform="translate(70,58) scale(.58)"><rect width="512" height="512" rx="112" fill="#0B1F3A"/><path d="M154 92h138c72 0 118 37 118 95 0 38-20 66-55 81 45 14 72 49 72 96 0 70-54 113-142 113H154V92z" fill="#0D2B45"/><path d="M205 126c-27 0-49 22-49 49 0 13 5 25 13 34v93c-8 9-13 21-13 34 0 27 22 49 49 49 15 0 28-6 37-16 9 10 22 16 37 16 27 0 49-22 49-49 0-13-5-25-13-34v-93c8-9 13-21 13-34 0-27-22-49-49-49-15 0-28 6-37 16-9-10-22-16-37-16z" fill="white"/><path d="M212 210h60v90h-60z" fill="white"/><path d="M154 386v91h64v-91z" fill="#14B8A6"/><path d="M154 477l32-26 32 26z" fill="white" opacity=".95"/></g>
<line x1="410" y1="82" x2="410" y2="338" stroke="#E2E8F0" stroke-width="4"/>
<text x="465" y="155" font-family="Inter, Arial, sans-serif" font-size="70" fill="#475569" font-weight="400">The</text>
<text x="465" y="250" font-family="Inter, Arial, sans-serif" font-size="112" fill="#0B1F3A" font-weight="900">Bone</text>
<text x="785" y="250" font-family="Inter, Arial, sans-serif" font-size="112" fill="#0B1F3A" font-weight="300">Blog</text>
<text x="470" y="315" font-family="Inter, Arial, sans-serif" font-size="30" letter-spacing="4" fill="#475569" font-weight="800">ORTHOPEDIC KNOWLEDGE. CLEARLY EXPLAINED.</text>
</svg>
