<svg xmlns="http://www.w3.org/2000/svg" viewBox="0 0 1024 1024" role="img" aria-labelledby="title desc">
  <title id="title">The Bone Blog brand mark</title>
  <desc id="desc">Navy B mark with a white bone and teal bookmark.</desc>
  <defs>
    <linearGradient id="navy" x1="0" y1="0" x2="1" y2="1">
      <stop offset="0" stop-color="#0D2B45"/>
      <stop offset="1" stop-color="#071B34"/>
    </linearGradient>
    <linearGradient id="teal" x1="0" y1="0" x2="1" y2="1">
      <stop offset="0" stop-color="#18B2A6"/>
      <stop offset="1" stop-color="#14B8A6"/>
    </linearGradient>
  </defs>
  <g fill="url(#navy)">
    <path d="M286 118h250c95 0 172 30 228 86 43 43 65 96 65 158 0 85-44 149-120 184 92 34 145 101 145 193 0 62-23 116-68 159-57 55-137 83-240 83H286V118z"/>
    <rect x="198" y="118" width="210" height="736" rx="24"/>
  </g>
  <path d="M430 189c-48 0-87 38-87 85 0 34 20 64 50 78v300c-30 14-50 44-50 78 0 47 39 85 87 85 30 0 57-15 73-38 16 23 43 38 73 38 48 0 87-38 87-85 0-34-20-64-50-78V352c30-14 50-44 50-78 0-47-39-85-87-85-30 0-57 15-73 38-16-23-43-38-73-38z" fill="#fff"/>
  <path d="M253 765h106v175l-53-45-53 45z" fill="url(#teal)"/>
</svg>
