<svg xmlns="http://www.w3.org/2000/svg" viewBox="0 0 2600 820" role="img" aria-labelledby="title desc">
  <title id="title">The Bone Blog horizontal logo</title>
  <desc id="desc">The Bone Blog horizontal logo with B bone bookmark mark and tagline.</desc>
  <rect width="2600" height="820" fill="#fff"/>
  <g transform="translate(120 122) scale(.56)">
    <defs>
      <linearGradient id="navy" x1="0" y1="0" x2="1" y2="1"><stop offset="0" stop-color="#0D2B45"/><stop offset="1" stop-color="#071B34"/></linearGradient>
      <linearGradient id="teal" x1="0" y1="0" x2="1" y2="1"><stop offset="0" stop-color="#18B2A6"/><stop offset="1" stop-color="#14B8A6"/></linearGradient>
    </defs>
    <g fill="url(#navy)"><path d="M286 118h250c95 0 172 30 228 86 43 43 65 96 65 158 0 85-44 149-120 184 92 34 145 101 145 193 0 62-23 116-68 159-57 55-137 83-240 83H286V118z"/><rect x="198" y="118" width="210" height="736" rx="24"/></g>
    <path d="M430 189c-48 0-87 38-87 85 0 34 20 64 50 78v300c-30 14-50 44-50 78 0 47 39 85 87 85 30 0 57-15 73-38 16 23 43 38 73 38 48 0 87-38 87-85 0-34-20-64-50-78V352c30-14 50-44 50-78 0-47-39-85-87-85-30 0-57 15-73 38-16-23-43-38-73-38z" fill="#fff"/>
    <path d="M253 765h106v175l-53-45-53 45z" fill="url(#teal)"/>
  </g>
  <line x1="760" y1="165" x2="760" y2="655" stroke="#E6E9EE" stroke-width="6"/>
  <text x="860" y="255" font-family="Inter, Arial, sans-serif" font-weight="300" font-size="106" fill="#6B7280">The</text>
  <text x="860" y="455" font-family="Inter, Arial, sans-serif" font-weight="900" font-size="210" fill="#0D2B45">Bone</text>
  <text x="1440" y="455" font-family="Inter, Arial, sans-serif" font-weight="300" font-size="210" fill="#0D2B45">Blog</text>
  <text x="865" y="635" font-family="Inter, Arial, sans-serif" font-weight="800" font-size="54" letter-spacing="2" fill="#6B7280">ORTHOPEDIC KNOWLEDGE. CLEARLY EXPLAINED.</text>
</svg>
